<?xml version="1.0" encoding="UTF-8"?>
<!DOCTYPE svg PUBLIC "-//W3C//DTD SVG 1.1//EN" "http://www.w3.org/Graphics/SVG/1.1/DTD/svg11.dtd">
<svg xmlns="http://www.w3.org/2000/svg" version="1.1" width="359px" height="240px" style="shape-rendering:geometricPrecision; text-rendering:geometricPrecision; image-rendering:optimizeQuality; fill-rule:evenodd; clip-rule:evenodd" xmlns:xlink="http://www.w3.org/1999/xlink">
<g><path style="opacity:1" fill="#f7f5f3" d="M -0.5,-0.5 C 119.167,-0.5 238.833,-0.5 358.5,-0.5C 358.5,79.5 358.5,159.5 358.5,239.5C 238.833,239.5 119.167,239.5 -0.5,239.5C -0.5,159.5 -0.5,79.5 -0.5,-0.5 Z"/></g>
<g><path style="opacity:1" fill="#070707" d="M 177.5,3.5 C 197.186,13.761 216.686,24.4277 236,35.5C 236.667,57.5 236.667,79.5 236,101.5C 216.99,112.516 197.99,123.516 179,134.5C 160.102,123.967 141.268,113.3 122.5,102.5C 121.334,80.1741 121.167,57.8408 122,35.5C 127,32.5 132,29.5 137,26.5C 137.172,49.0727 137.672,71.5727 138.5,94C 152.083,102.041 165.583,110.208 179,118.5C 192.752,110.374 206.585,102.374 220.5,94.5C 221.833,77.5 221.833,60.5 220.5,43.5C 206.892,35.4457 193.059,27.779 179,20.5C 172.855,23.5726 166.855,26.9059 161,30.5C 160.333,34.1667 160.333,37.8333 161,41.5C 166.833,37.5823 172.833,33.9157 179,30.5C 189.417,36.959 199.917,43.2924 210.5,49.5C 211.666,62.4872 211.833,75.4872 211,88.5C 200.085,94.7072 189.251,101.041 178.5,107.5C 167.663,100.914 156.663,94.5806 145.5,88.5C 144.167,66.5 144.167,44.5 145.5,22.5C 156.56,16.6442 167.227,10.3109 177.5,3.5 Z"/></g>
<g><path style="opacity:1" fill="#f7f4f2" d="M 176.5,48.5 C 183.56,50.6141 190.06,53.9474 196,58.5C 196.667,65.5 196.667,72.5 196,79.5C 190.529,83.4711 184.696,86.8044 178.5,89.5C 172.304,86.8044 166.471,83.4711 161,79.5C 160.333,72.5 160.333,65.5 161,58.5C 166.341,55.3036 171.508,51.9703 176.5,48.5 Z"/></g>
<g><path style="opacity:1" fill="#030303" d="M 24.5,148.5 C 40.5489,148.078 56.5489,148.578 72.5,150C 87.4527,156.732 91.6194,167.566 85,182.5C 82.079,186.092 78.579,188.925 74.5,191C 84.6608,194.321 89.9941,201.321 90.5,212C 89.634,223.533 83.634,230.866 72.5,234C 56.5355,235.366 40.5355,235.866 24.5,235.5C 24.5,206.5 24.5,177.5 24.5,148.5 Z"/></g>
<g><path style="opacity:1" fill="#010101" d="M 122.5,162.5 C 121.508,169.648 121.175,176.981 121.5,184.5C 131.167,184.5 140.833,184.5 150.5,184.5C 150.5,188.833 150.5,193.167 150.5,197.5C 140.833,197.5 131.167,197.5 121.5,197.5C 121.5,205.5 121.5,213.5 121.5,221.5C 132.5,221.5 143.5,221.5 154.5,221.5C 154.5,226.167 154.5,230.833 154.5,235.5C 137.833,235.5 121.167,235.5 104.5,235.5C 104.5,206.5 104.5,177.5 104.5,148.5C 121.167,148.5 137.833,148.5 154.5,148.5C 154.5,153.167 154.5,157.833 154.5,162.5C 143.833,162.5 133.167,162.5 122.5,162.5 Z"/></g>
<g><path style="opacity:1" fill="#020202" d="M 225.5,205.5 C 225.783,206.289 226.283,206.956 227,207.5C 227.5,187.836 227.667,168.169 227.5,148.5C 233.167,148.5 238.833,148.5 244.5,148.5C 244.5,177.5 244.5,206.5 244.5,235.5C 238.463,235.829 232.463,235.496 226.5,234.5C 214.156,215.805 201.823,197.138 189.5,178.5C 189.217,177.711 188.717,177.044 188,176.5C 187.5,196.164 187.333,215.831 187.5,235.5C 181.833,235.5 176.167,235.5 170.5,235.5C 170.5,206.5 170.5,177.5 170.5,148.5C 176.537,148.171 182.537,148.504 188.5,149.5C 200.844,168.195 213.177,186.862 225.5,205.5 Z"/></g>
<g><path style="opacity:1" fill="#030303" d="M 262.5,148.5 C 267.833,148.5 273.167,148.5 278.5,148.5C 278.168,161.184 278.501,173.851 279.5,186.5C 280.107,186.376 280.44,186.043 280.5,185.5C 290.288,173.207 300.288,161.04 310.5,149C 317.5,148.333 324.5,148.333 331.5,149C 319.267,162.73 307.6,176.897 296.5,191.5C 307.934,206.437 319.934,220.937 332.5,235C 325.167,235.667 317.833,235.667 310.5,235C 300.506,222.153 290.173,209.653 279.5,197.5C 278.501,209.086 278.168,221.419 278.5,234.5C 273.167,234.5 267.833,234.5 262.5,234.5C 262.5,205.833 262.5,177.167 262.5,148.5 Z"/></g>
<g><path style="opacity:1" fill="#9e9c9b" d="M 227.5,148.5 C 227.667,168.169 227.5,187.836 227,207.5C 226.283,206.956 225.783,206.289 225.5,205.5C 226.167,186.5 226.833,167.5 227.5,148.5 Z"/></g>
<g><path style="opacity:1" fill="#f8f5f3" d="M 42.5,162.5 C 50.2382,162.144 57.9048,162.644 65.5,164C 71.8083,169.6 72.1417,175.6 66.5,182C 64.9751,183.009 63.3084,183.509 61.5,183.5C 55.1667,183.5 48.8333,183.5 42.5,183.5C 42.5,176.5 42.5,169.5 42.5,162.5 Z"/></g>
<g><path style="opacity:1" fill="#666564" d="M 278.5,148.5 C 279.167,160.833 279.833,173.167 280.5,185.5C 280.44,186.043 280.107,186.376 279.5,186.5C 278.501,173.851 278.168,161.184 278.5,148.5 Z"/></g>
<g><path style="opacity:1" fill="#bab8b7" d="M 189.5,178.5 C 188.833,197.5 188.167,216.5 187.5,235.5C 187.333,215.831 187.5,196.164 188,176.5C 188.717,177.044 189.217,177.711 189.5,178.5 Z"/></g>
<g><path style="opacity:1" fill="#b5b3b2" d="M 42.5,162.5 C 42.5,169.5 42.5,176.5 42.5,183.5C 48.8333,183.5 55.1667,183.5 61.5,183.5C 55.021,184.491 48.3543,184.824 41.5,184.5C 41.175,176.981 41.5084,169.648 42.5,162.5 Z"/></g>
<g><path style="opacity:1" fill="#c2c0be" d="M 122.5,162.5 C 122.5,169.5 122.5,176.5 122.5,183.5C 132.015,183.173 141.348,183.506 150.5,184.5C 140.833,184.5 131.167,184.5 121.5,184.5C 121.175,176.981 121.508,169.648 122.5,162.5 Z"/></g>
<g><path style="opacity:1" fill="#3e3d3d" d="M 262.5,148.5 C 262.5,177.167 262.5,205.833 262.5,234.5C 267.833,234.5 273.167,234.5 278.5,234.5C 278.168,221.419 278.501,209.086 279.5,197.5C 279.5,210.167 279.5,222.833 279.5,235.5C 273.5,235.5 267.5,235.5 261.5,235.5C 261.169,206.329 261.502,177.329 262.5,148.5 Z"/></g>
<g><path style="opacity:1" fill="#a5a3a2" d="M 62.5,198.5 C 55.8333,198.5 49.1667,198.5 42.5,198.5C 42.5,205.833 42.5,213.167 42.5,220.5C 49.1667,220.5 55.8333,220.5 62.5,220.5C 55.6866,221.491 48.6866,221.825 41.5,221.5C 41.5,213.5 41.5,205.5 41.5,197.5C 48.6866,197.175 55.6866,197.509 62.5,198.5 Z"/></g>
<g><path style="opacity:1" fill="#f6f3f1" d="M 62.5,198.5 C 72.8653,201.366 75.3653,207.699 70,217.5C 67.7646,219.202 65.2646,220.202 62.5,220.5C 55.8333,220.5 49.1667,220.5 42.5,220.5C 42.5,213.167 42.5,205.833 42.5,198.5C 49.1667,198.5 55.8333,198.5 62.5,198.5 Z"/></g>
</svg>
